<?xml version="1.0" encoding="UTF-8"?>
<svg width="207px" height="91px" viewBox="0 0 207 91" version="1.1" xmlns="http://www.w3.org/2000/svg" xmlns:xlink="http://www.w3.org/1999/xlink">
    <title>2E2B1774-DF47-4489-A6CC-9926A1AE6764</title>
    <defs>
        <linearGradient x1="49.6363636%" y1="13.5549872%" x2="49.6363636%" y2="86.4450128%" id="linearGradient-1">
            <stop stop-color="#8F8F8F" offset="0%"></stop>
            <stop stop-color="#969696" offset="17%"></stop>
            <stop stop-color="#A8A8A8" offset="42%"></stop>
            <stop stop-color="#C7C7C7" offset="71%"></stop>
            <stop stop-color="#ECECEC" offset="100%"></stop>
        </linearGradient>
        <linearGradient x1="0%" y1="48.8067798%" x2="100%" y2="51.2878524%" id="linearGradient-2">
            <stop stop-color="#4D4D4D" offset="1%"></stop>
            <stop stop-color="#DEE0E2" offset="89%"></stop>
        </linearGradient>
        <linearGradient x1="49.8668442%" y1="-10.7913669%" x2="49.8668442%" y2="131.294964%" id="linearGradient-3">
            <stop stop-color="#F5F5F5" offset="0%"></stop>
            <stop stop-color="#231E1D" offset="100%"></stop>
        </linearGradient>
        <linearGradient x1="14.1509434%" y1="49.990618%" x2="114.465409%" y2="49.990618%" id="linearGradient-4">
            <stop stop-color="#5D5B5D" offset="1%"></stop>
            <stop stop-color="#DEE0E2" offset="48%"></stop>
            <stop stop-color="#5D5B5D" offset="100%"></stop>
        </linearGradient>
        <linearGradient x1="-10.7563025%" y1="50.020179%" x2="102.521008%" y2="50.020179%" id="linearGradient-5">
            <stop stop-color="#5D5B5D" offset="1%"></stop>
            <stop stop-color="#DEE0E2" offset="48%"></stop>
            <stop stop-color="#5D5B5D" offset="100%"></stop>
        </linearGradient>
        <linearGradient x1="-11.5072934%" y1="50.0364697%" x2="97.4068071%" y2="50.0364697%" id="linearGradient-6">
            <stop stop-color="#5D5B5D" offset="1%"></stop>
            <stop stop-color="#DEE0E2" offset="48%"></stop>
            <stop stop-color="#5D5B5D" offset="100%"></stop>
        </linearGradient>
        <linearGradient x1="51.0861606%" y1="9.27979101%" x2="57.7363782%" y2="122.076146%" id="linearGradient-7">
            <stop stop-color="#1F1F1F" offset="11%"></stop>
            <stop stop-color="#262626" offset="21%"></stop>
            <stop stop-color="#383838" offset="34%"></stop>
            <stop stop-color="#575757" offset="49%"></stop>
            <stop stop-color="#818181" offset="66%"></stop>
            <stop stop-color="#B7B7B7" offset="84%"></stop>
            <stop stop-color="#ECECEC" offset="100%"></stop>
        </linearGradient>
        <linearGradient x1="-0.81922312%" y1="51.4236679%" x2="94.4154646%" y2="49.0496744%" id="linearGradient-8">
            <stop stop-color="#4D4D4D" offset="1%"></stop>
            <stop stop-color="#DEE0E2" offset="89%"></stop>
        </linearGradient>
        <linearGradient x1="113.569233%" y1="39.8287426%" x2="20.7467359%" y2="55.4093096%" id="linearGradient-9">
            <stop stop-color="#4D4D4D" offset="1%"></stop>
            <stop stop-color="#DEE0E2" offset="89%"></stop>
        </linearGradient>
    </defs>
    <g id="100-Home-page-/-Accueil" stroke="none" stroke-width="1" fill="none" fill-rule="evenodd">
        <g id="100-Pieux-Vistech-Homepage-Desktop" transform="translate(-101.000000, -24.000000)" fill-rule="nonzero">
            <g id="Organisms-/-Navbar-/-#01" transform="translate(0.000000, 0.000000)">
                <g id="logo" transform="translate(78.000000, 0.000000)">
                    <g id="pieux-vistech.-logo" transform="translate(23.333333, 24.166667)">
                        <path d="M111.866667,19.1166667 C89.525,18.5166667 69.05,19.95 51.9166667,22.8916667 L51.9166667,36.5583333 C71.6666667,28.7416667 102.208333,24.35 136.5,25.5416667 C161.958333,26.4333333 185.375,30.2583333 203.875,35.925 C183.133333,26.6666667 149.658333,20.1333333 111.866667,19.1166667 Z" id="Path" fill="#439539"></path>
                        <path d="M42.0916667,76 C42.0916667,76 28.3333333,67.5833333 28.6,58.7333333 C28.825,51.9333333 33.9,45.7416667 43.2583333,40.5916667 L43.2583333,24.575 C17.0916667,30.275 0.691666667,39.875 0.675,51.1666667 C0.675,60.9166667 13.2416667,71.1666667 33.3083333,77.3833333 C33.3333333,77.3833333 40.9,76.2916667 42.0916667,76 Z" id="Path" fill="#439539"></path>
                        <polygon id="Path" fill="#1D1D1B" points="54.5083333 66.0833333 52.1 66.0833333 52.6083333 46.6666667 57.3 46.6666667 56.7166667 57.9416667 56.7833333 57.9416667 66.0916667 46.6666667 71.15 46.6666667"></polygon>
                        <polygon id="Path" fill="#1D1D1B" points="70.4 65.8333333 65.4833333 65.8333333 74 46.6666667 78.9166667 46.6666667"></polygon>
                        <path d="M104.216667,51.2916667 C102.646947,50.2576157 100.820548,49.6805545 98.9416667,49.625 C97.15,49.625 95.4583333,50.4583333 95.1083333,51.725 C94.3583333,54.475 102.775,54.85 101.3,60.225 C100.466667,63.3166667 97.0416667,66.0583333 91.85,66.0583333 C89.2646653,66.1878603 86.6987556,65.550007 84.475,64.225 L86.1416667,60.8916667 C87.926419,62.0905717 90.0098216,62.7686875 92.1583333,62.85 C94.1666667,62.85 95.7166667,62.0166667 96.0666667,60.7416667 C96.9,57.5666667 88.5166667,57.1916667 89.9,52.1666667 C90.8166667,48.8333333 94.9,46.375 99.6333333,46.375 C101.797044,46.3569382 103.930065,46.8873263 105.833333,47.9166667 L104.216667,51.2916667 Z" id="Path" fill="#1D1D1B"></path>
                        <polygon id="Path" fill="#1D1D1B" points="132.116667 49.8583333 124.616667 49.8583333 117.5 65.8333333 112.575 65.8333333 119.675 49.875 112.333333 49.875 113.75 46.6666667 133.533333 46.6666667"></polygon>
                        <polygon id="Path" fill="#1D1D1B" points="149.658333 49.8583333 140.125 49.8583333 138.1 54.3833333 146.483333 54.3833333 145.058333 57.5916667 136.666667 57.5916667 134.433333 62.5916667 146.441667 62.5916667 145.025 65.7916667 128.108333 65.7916667 136.616667 46.625 151.083333 46.625"></polygon>
                        <path d="M173.166667,50.65 C171.405499,50.1640354 169.585248,49.9256358 167.758333,49.9416667 C160.325,49.9416667 156.658333,54.4083333 155.833333,57.4 C155,60.5416667 156.975,62.5416667 161.05,62.5416667 C163.691667,62.5416667 166.325,61.8666667 170.083333,60.2833333 L168.191667,64.5583333 C165.442717,65.5359415 162.550766,66.0512551 159.633333,66.0833333 C152.908333,66.0833333 149.333333,62.5416667 150.775,57.3083333 C152.533333,50.8666667 159.941667,46.4 168.866667,46.4 C170.914181,46.4061373 172.954605,46.6409258 174.95,47.1 L173.166667,50.65 Z" id="Path" fill="#1D1D1B"></path>
                        <polygon id="Path" fill="#1D1D1B" points="192.925 65.8333333 188.008333 65.8333333 191.516667 58.0333333 179.7 58.0333333 176.233333 65.8333333 171.308333 65.8333333 179.833333 46.6666667 184.75 46.6666667 181.416667 54.2583333 193.2 54.2583333 196.533333 46.6666667 201.458333 46.6666667"></polygon>
                        <path d="M101.183333,37.6916667 C109.516667,37.6916667 116.6,40.6 119.108333,44.6333333 C115.875,41.825 110.575,40.0166667 104.608333,40.0166667 C94.7666667,40.0166667 86.7833333,44.95 86.7833333,51.05 C86.794002,52.5370558 87.2465013,53.9873738 88.0833333,55.2166667 C84.5083333,53.3666667 82.25,50.7666667 82.25,47.875 C82.2833333,42.2583333 90.75,37.6916667 101.183333,37.6916667 Z" id="Path" fill="#439539"></path>
                        <path d="M89.7,74.2333333 C81.3666667,74.2333333 74.2833333,71.325 71.775,67.2916667 C75.0083333,70.0916667 80.2916667,71.925 86.2666667,71.925 C96.1083333,71.925 104.1,66.975 104.1,60.8666667 C104.086873,59.378744 103.63145,57.9283527 102.791667,56.7 C106.366667,58.5416667 108.625,61.1416667 108.625,64.025 C108.583333,69.675 100.125,74.2333333 89.7,74.2333333 Z" id="Path" fill="#439539"></path>
                        <path d="M164.908333,44.0583333 L163.025,44.0583333 L166.416667,38 L169.358333,38 C171.466667,38 172.433333,38.575 171.783333,39.75 C171.208333,40.775 169.283333,41.775 167.041667,41.775 L166.6,41.775 L167.025,41.0166667 L167.45,41.0166667 C168.408129,41.0472893 169.318153,40.5969683 169.875,39.8166667 C170.216667,39.1916667 169.791667,38.8416667 168.683333,38.8416667 L167.85,38.8416667 L164.908333,44.0583333 Z" id="Path" fill="#1D1D1B"></path>
                        <polygon id="Path" fill="#1D1D1B" points="171.741667 44.0666667 175.133333 38.0083333 177.016667 38.0083333 173.625 44.0666667"></polygon>
                        <polygon id="Path" fill="#1D1D1B" points="184.6 38.825 181.458333 38.825 180.525 40.4916667 183.6 40.4916667 183.141667 41.325 180.066667 41.325 178.975 43.275 182.691667 43.275 182.233333 44.1083333 176.666667 44.1083333 180 38.0083333 185 38.0083333"></polygon>
                        <path d="M189.875,38.0166667 L187.933333,41.5 C187.266667,42.6833333 187.441667,43.3333333 188.933333,43.3333333 C190.18288,43.351798 191.337786,42.6697923 191.925,41.5666667 L193.908333,38.025 L195.575,38.025 L193.466667,41.7833333 C192.633333,43.3166667 190.6,44.1833333 188.391667,44.1833333 C185.85,44.1833333 184.983333,43.35 185.891667,41.6833333 L187.966667,37.9833333 L189.875,38.0166667 Z" id="Path" fill="#1D1D1B"></path>
                        <polygon id="Path" fill="#1D1D1B" points="200.616667 44.1666667 199.725 41.6666667 196.1 44.1666667 194.516667 43.975 199.3 40.8333333 198.225 38.15 200.283333 37.9833333 200.925 39.9166667 203.716667 37.9833333 205.258333 38.1583333 201.325 40.725 202.733333 44.0583333"></polygon>
                        <path d="M198.866667,61.8083151 C199.052602,61.8075374 199.237733,61.8327826 199.416667,61.8833333 C199.758564,61.9796654 200.07086,62.1601665 200.325,62.4083333 C200.44927,62.5319504 200.555836,62.6721691 200.641667,62.825 C200.924137,63.3022795 200.999393,63.8742297 200.85,64.4083333 C200.801438,64.5776649 200.731426,64.7400929 200.641667,64.8916667 C200.557917,65.0458526 200.451132,65.1863581 200.325,65.3083333 C200.197702,65.4307586 200.058068,65.5396727 199.908333,65.6333333 C199.753563,65.720527 199.588355,65.7877303 199.416667,65.8333333 C199.237733,65.8838841 199.052602,65.9091292 198.866667,65.9083516 C198.686222,65.9088986 198.506624,65.8836427 198.333333,65.8333333 C198.16116,65.7891908 197.995765,65.7219115 197.841667,65.6333333 C197.537007,65.4511304 197.282203,65.1963261 197.1,64.8916667 C197.008754,64.7408537 196.938655,64.5782229 196.891667,64.4083333 C196.843929,64.2290012 196.82149,64.0438772 196.825,63.8583333 C196.818591,63.4949935 196.91384,63.1370916 197.1,62.825 C197.191527,62.6737835 197.300618,62.5339231 197.425,62.4083333 C197.546975,62.2822009 197.687481,62.1754167 197.841667,62.0916667 C197.995415,62.0003765 198.160803,61.930297 198.333333,61.8833333 C198.506624,61.833024 198.686222,61.8077681 198.866667,61.8083151 Z M200,65 C200.142412,64.8517265 200.25301,64.6759048 200.325,64.4833333 C200.407531,64.2797229 200.447245,64.061297 200.441667,63.8416667 C200.441531,63.6902882 200.424764,63.5393828 200.391667,63.3916667 C200.353755,63.2516485 200.297726,63.1171789 200.225,62.9916667 C200.156529,62.8676137 200.072518,62.7527988 199.975,62.65 C199.879778,62.5485727 199.770296,62.461549 199.65,62.3916667 C199.530195,62.3193267 199.401282,62.2632777 199.266667,62.225 C199.125822,62.1846116 198.979844,62.1649607 198.833333,62.1666667 C198.617592,62.1632203 198.403885,62.2088111 198.208333,62.3 C198.01586,62.3790652 197.842534,62.4984039 197.7,62.65 C197.556819,62.8072145 197.441297,62.9875419 197.358333,63.1833333 C197.09777,63.8107475 197.231726,64.5328 197.7,65.025 C197.844375,65.1765441 198.017082,65.2982881 198.208333,65.3833333 C198.405758,65.4678471 198.61859,65.5104136 198.833333,65.5083333 C199.038972,65.5083631 199.242689,65.4687515 199.433333,65.3916667 C199.613993,65.3184332 199.780404,65.2140736 199.925,65.0833333 L199.325,65.0833333 C199.262682,65.0796623 199.204975,65.0492903 199.166667,65 L198.908333,64.3583333 C198.892991,64.3301579 198.869842,64.3070093 198.841667,64.2916667 C198.841667,64.2916667 198.791667,64.2916667 198.741667,64.2916667 L198.658333,64.2916667 L198.658333,65.125 L197.916667,65.125 L197.916667,62.625 L198.891667,62.625 C199.05144,62.6223895 199.210939,62.6391789 199.366667,62.675 C199.484586,62.7008686 199.595477,62.7520491 199.691667,62.825 C199.774608,62.8814205 199.840817,62.959144 199.883333,63.05 C199.924975,63.1502362 199.944858,63.2581719 199.941667,63.3666667 C199.949856,63.4414431 199.949856,63.5168902 199.941667,63.5916667 C199.922575,63.658991 199.894548,63.7234535 199.858333,63.7833333 C199.815213,63.8447149 199.764849,63.9006742 199.708333,63.95 C199.640934,63.9972468 199.568212,64.0364045 199.491667,64.0666667 C199.547264,64.0902618 199.595996,64.127527 199.633333,64.175 C199.670486,64.2223459 199.703919,64.2724956 199.733333,64.325 L200,65 Z M198.783333,63.7416667 C198.852359,63.752448 198.922641,63.752448 198.991667,63.7416667 C199.035624,63.7346676 199.07636,63.7143 199.108333,63.6833333 C199.120489,63.6511082 199.120489,63.6155584 199.108333,63.5833333 C199.113429,63.539035 199.113429,63.4942984 199.108333,63.45 C199.112401,63.4084326 199.112401,63.3665674 199.108333,63.325 C199.119167,63.2954047 199.119167,63.2629286 199.108333,63.2333333 C199.084044,63.2054539 199.052209,63.1851953 199.016667,63.175 L198.841667,63.175 L198.608333,63.175 L198.608333,63.7833333 L198.783333,63.7416667 Z" id="Shape" fill="#1D1D1B"></path>
                        <path d="M36.0333333,79.4333333 L36.0333333,79.4333333 C36.0333333,79.4333333 38.3,81.1 45.2,81.8333333 L45.2,78.575 L36.0333333,79.4333333 Z" id="Path" fill="url(#linearGradient-1)"></path>
                        <path d="M50.3,81.0083333 L50.3,82.125 C50.3,82.125 54.375,82.225 55.5833333,81.4916667 L50.3,81.0083333 Z" id="Path" fill="#B1B1B1"></path>
                        <polygon id="Path" fill="url(#linearGradient-2)" points="50.3 81.0083333 50.3 80.3 55.5833333 80.7916667 55.5833333 81.4916667"></polygon>
                        <path d="M46.3666667,2.95833333 C46.3666667,2.59166667 46.9833333,2.49166667 47.7,2.49166667 C48.4166667,2.49166667 49.0166667,2.64166667 49.0166667,3.00833333 L49.0166667,3.41666667 L54.0166667,2.58333333 L54.0166667,2.58333333 L47.8666667,1.1 L47.8666667,1.1 L41.5,2.55 L46.3666667,3.38333333 L46.3666667,2.95833333 Z" id="Path" fill="url(#linearGradient-3)"></path>
                        <path d="M47.7333333,6.45 C47.7333333,6.95 48.6666667,6.45 49.0166667,6.54166667 L49.0166667,3.00833333 C49.0166667,2.64166667 48.4333333,2.49166667 47.7,2.49166667 C46.9666667,2.49166667 46.3666667,2.59166667 46.3666667,2.95833333 L46.3666667,6.54166667 L47.7333333,6.45 Z" id="Path" fill="url(#linearGradient-4)"></path>
                        <polygon id="Path" fill="#C2C3C6" points="47.7833333 1.05833333 41.5 2.55 41.5 1.75 47.7833333 0.266666667"></polygon>
                        <polygon id="Path" fill="#C2C3C6" points="47.7833333 1.05833333 53.975 2.55 53.975 1.75 47.7833333 0.266666667"></polygon>
                        <path d="M43.475,2.5 C43.475,2.56666667 43.325,2.61666667 43.1583333,2.61666667 C42.9916667,2.61666667 42.8416667,2.56666667 42.8416667,2.5 C42.8416667,2.43333333 42.9833333,2.375 43.1583333,2.375 C43.3333333,2.375 43.475,2.5 43.475,2.5 Z" id="Path" fill="#150F0E"></path>
                        <path d="M52.7416667,2.5 C52.7416667,2.56666667 52.5916667,2.61666667 52.425,2.61666667 C52.2583333,2.61666667 52.1,2.56666667 52.1,2.5 C52.1,2.43333333 52.25,2.375 52.425,2.375 C52.6,2.375 52.7416667,2.5 52.7416667,2.5 Z" id="Path" fill="#150F0E"></path>
                        <path d="M48.075,1.58333333 C48.075,1.65 47.925,1.70833333 47.7583333,1.70833333 C47.5916667,1.70833333 47.4333333,1.65 47.4333333,1.58333333 C47.4333333,1.51666667 47.5833333,1.46666667 47.7583333,1.46666667 C47.9333333,1.46666667 48.075,1.525 48.075,1.58333333 Z" id="Path" fill="#150F0E"></path>
                        <path d="M48.8,76.0416667 L48.8,76.0416667 L48.95,75.975 L48.95,75.975 L49.0833333,75.9166667 L49.0833333,75.9166667 C49.1245659,75.902313 49.1637775,75.8827072 49.2,75.8583333 L49.2,75.8583333 L49.3166667,75.8 L49.3166667,75.8 L49.425,75.725 L49.425,75.725 C49.5839063,75.6276434 49.7271902,75.5068354 49.85,75.3666667 L49.85,75.3666667 L49.925,75.275 L49.925,75.275 C50.0370235,75.1227224 50.0982523,74.9390362 50.1,74.75 L50.1,71.9916667 L50.1,71.9916667 L50.1,7.425 L50,7.325 C49.2426417,7.1350405 48.4641161,7.04262559 47.6833333,7.05 C46.8895591,7.00083359 46.0938711,7.10843551 45.3416667,7.36666667 L45.2833333,7.36666667 L45.1416667,7.43333333 L45.1416667,7.43333333 L45.1416667,77.05 C46.3826001,76.7973798 47.604876,76.4604882 48.8,76.0416667 Z" id="Path" fill="url(#linearGradient-5)"></path>
                        <path d="M47.7,78.3333333 L45.2,78.5666667 L45.2,85.3833333 C45.2123998,85.265413 45.2620179,85.1545019 45.3416667,85.0666667 C45.825,84.5666667 47.3,85.2666667 48.675,86.625 C49.533432,87.3862775 50.118839,88.4078127 50.3416667,89.5333333 L50.3416667,78.1083333 C48.7833333,78.2666667 47.7,78.3333333 47.7,78.3333333 Z" id="Path" fill="url(#linearGradient-6)"></path>
                        <path d="M50.2416667,6.89166667 L50.2416667,6.89166667 C49.4488781,6.5695351 48.5968403,6.41900843 47.7416667,6.45 C46.8885695,6.40296826 46.0354647,6.54230871 45.2416667,6.85833333 L45.1416667,6.90833333 C45.0833333,6.90833333 45.075,7.03333333 45.0833333,7.11666667 C45.0918342,7.23280884 45.1142159,7.34751472 45.15,7.45833333 L45.2916667,7.39166667 L45.35,7.39166667 C46.1022045,7.13343551 46.8978924,7.02583359 47.6916667,7.075 C48.4724495,7.06762559 49.250975,7.1600405 50.0083333,7.35 L50.3166667,7.45 C50.3301235,7.32257652 50.3301235,7.19409015 50.3166667,7.06666667 C50.3213429,6.99965315 50.2934187,6.93449665 50.2416667,6.89166667 Z" id="Path" fill="#5D5B5D"></path>
                        <path d="M50.2416667,6.89166667 L50.2416667,6.89166667 C49.4488781,6.5695351 48.5968403,6.41900843 47.7416667,6.45 C46.8885695,6.40296826 46.0354647,6.54230871 45.2416667,6.85833333 L45.1416667,6.90833333 C45.0833333,6.90833333 45.075,7.03333333 45.0833333,7.11666667 C45.0918342,7.23280884 45.1142159,7.34751472 45.15,7.45833333 L45.2916667,7.39166667 L45.35,7.39166667 C46.1022045,7.13343551 46.8978924,7.02583359 47.6916667,7.075 C48.4724495,7.06762559 49.250975,7.1600405 50.0083333,7.35 L50.3166667,7.45 C50.3301235,7.32257652 50.3301235,7.19409015 50.3166667,7.06666667 C50.3213429,6.99965315 50.2934187,6.93449665 50.2416667,6.89166667 Z" id="Path" fill="#5D5B5D"></path>
                        <path d="M48.6,86.6666667 C49.9333333,88.0333333 50.6333333,89.5333333 50.15,90 C49.6666667,90.4666667 48.1916667,89.8 46.8166667,88.4416667 C45.4416667,87.0833333 44.7833333,85.575 45.2666667,85.1083333 C45.75,84.6416667 47.2583333,85.275 48.6,86.6666667 Z" id="Path" fill="#D9D9D9"></path>
                        <path d="M48.275,86.6166667 C49.45,87.75 50.125,89.075 49.8,89.5666667 C49.475,90.0583333 48.25,89.5666667 47.0833333,88.4166667 C45.9166667,87.2666667 45.2333333,85.9583333 45.5666667,85.4666667 C45.9,84.975 47.1083333,85.4833333 48.275,86.6166667 Z" id="Path" fill="url(#linearGradient-7)"></path>
                        <path d="M60.275,74.2166667 L60.275,74.2166667 C60.525,76.6 47.575,77.4666667 47.575,77.4666667 L35.9083333,78.5916667 L35.9083333,79.425 L47.7,78.3333333 C47.7,78.3333333 59.2916667,77.575 60.25,75.3083333 C60.33628,74.9504161 60.344805,74.5781584 60.275,74.2166667 L60.275,74.2166667 Z" id="Path" fill="url(#linearGradient-8)"></path>
                        <path d="M50.3,71.9083333 C50.3,71.9083333 59.2666667,71.5166667 60.225,74.0333333 C61.1833333,76.55 47.5666667,77.5 47.5666667,77.5 L35.9,78.625 C35.9,78.625 41.4,77.9833333 44.55,77.2333333 C47.7,76.4833333 50.275,75.9166667 50.2666667,74.7333333 L50.3,71.9083333 Z" id="Path" fill="url(#linearGradient-9)"></path>
                    </g>
                </g>
            </g>
        </g>
    </g>
</svg>